# xmcd
#
# Track frame offsets: 
#        150
#        25015
#        44467
#        71285
#        97275
#        110162
#        124602
#        144857
#        168392
#        184397
#
# Disc length: 2762 seconds
#
# Revision: 0
# Processed by: cddbd v1.5.1PL0 Copyright (c) Steve Scherf et al.
# Submitted via: ExactAudioCopy v0.95a5
#
DISCID=8b0ac80a
DTITLE=Ginhouse - Ginhouse
DYEAR=1971
DGENRE=Progressive Rock
TTITLE0=Tyne God
TTITLE1=I Cannot Understand
TTITLE2=The Journey
TTITLE3=Portrait Picture
TTITLE4=Fair Stood the Wind
TTITLE5=And I Love Her
TTITLE6=Life
TTITLE7=The Morning After
TTITLE8=The House
TTITLE9=Sun in a Bottle
EXTD=
EXTT0=
EXTT1=
EXTT2=
EXTT3=
EXTT4=
EXTT5=
EXTT6=
EXTT7=
EXTT8=
EXTT9=
PLAYORDER=
